# xmcd
#
# Track frame offsets:
#	150
#	16807
#	34442
#	49027
#	66687
#	79907
#	95587
#	113632
#	131235
#	150027
#	168640
#	185300
#	202932
#	217515
#	235177
#	248397
#	264077
#	282120
#	299722
#	318517
#
# Disc length: 4495 seconds
#
# Revision: 1
# Processed by: cddbd v1.5.1PL0 Copyright (c) Steve Scherf et al.
# Submitted via: audiograbber 1.82.02
#
DISCID=12118d14
DTITLE=Various Artist - Top Hits Monthly Country 0312C
DYEAR=1900
DGENRE=Karaoke
TTITLE0=Reba McEntire W - Vocals - I'm gonna take that mountain W - Vocals
TTITLE1=Lonestar W - Vocals - Walking in Memphis W - Vocals
TTITLE2=Diamond Rio W - Vocals - Wrinkles W - Vocals
TTITLE3=Craig Morgan W - Vocals - Every Friday afternoon W - Vocals
TTITLE4=Terri Clark W - Vocals - I wanna do it all W - Vocals
TTITLE5=Hank Williams Jr. W - Vocals - I'm one of you W - Vocals
TTITLE6=Toby Keith W - Vocals - I love this bar W - Vocals
TTITLE7=Brad Paisley W - Vocals - Little moments W - Vocals
TTITLE8=Wynonna Judd W - Vocals - Heaven help me W - Vocals
TTITLE9=Jimmy Wayne W - Vocals - I love you this much W - Vocals
TTITLE10=Reba McEntire - I'm gonna take that mountain
TTITLE11=LOnestar - Walking in Memphis
TTITLE12=Diamond Rio - Wrinkles
TTITLE13=Craig Morgan - Every Friday afternoon
TTITLE14=Terri Clark - I wanna do it all
TTITLE15=Hank Williams Jr. - I'm one of you
TTITLE16=Toby Keith - I love this bar
TTITLE17=Brad Paisley - Little moments
TTITLE18=Wynonna Judd - Heaven help me
TTITLE19=Jimmy Wayne - I love you this much
EXTD=
EXTT0=
EXTT1=
EXTT2=
EXTT3=
EXTT4=
EXTT5=
EXTT6=
EXTT7=
EXTT8=
EXTT9=
EXTT10=
EXTT11=
EXTT12=
EXTT13=
EXTT14=
EXTT15=
EXTT16=
EXTT17=
EXTT18=
EXTT19=
PLAYORDER=
